<?xml version="1.0" encoding="UTF-8"?>
<svg id="Ebene_2" xmlns="http://www.w3.org/2000/svg" viewBox="0 0 415.68 74.19">
    <defs>
        <style>.cls-1{fill:#e0ad49;}.cls-2{fill:#8cdba4;}.cls-3{fill:#030303;}.cls-4{fill:#ce6326;}</style>
    </defs>
    <g id="main_x5F_größer">
        <path class="cls-3"
            d="M1.05,14.94C1.05,5.72,6,.92,15.15.92c6.45,0,13.65,2.85,14.17,12.22h-1.73c-.52-7.57-6.3-10.5-12.45-10.5C7.5,2.64,2.85,6.17,2.85,14.86c0,7.42,3.45,10.72,12.07,13.42,11.1,3.45,14.32,8.62,14.32,16.35,0,11.92-6.15,15.22-15.07,15.22C5.77,59.86.08,55.29,0,46.96h1.73c.22,7.42,5.1,11.17,12.52,11.17,8.77,0,13.05-3.07,13.05-13.5,0-7.8-3.52-11.55-12.97-14.62C4.8,26.94,1.05,23.19,1.05,14.94Z" />
        <path class="cls-3"
            d="M60.14,46.89h1.73v.38c0,8.17-3.52,12.6-12.67,12.6s-12.82-3.97-12.82-16.27v-13.05c0-12.3,4.42-16.05,13.2-16.05s12.07,4.35,12.07,12.15v.3h-1.73v-.3c0-6.22-2.1-10.5-10.42-10.5s-11.32,4.05-11.32,14.4v12.82c0,10.05,2.25,14.85,11.1,14.85s10.87-4.65,10.87-10.95v-.38Z" />
        <path class="cls-3"
            d="M72.14,15.39l.3,5.85c1.65-3.37,5.47-6.75,11.02-6.75.75,0,1.72.07,2.25.15v1.8c-.6-.08-1.27-.15-2.25-.15-6.52,0-11.17,4.35-11.17,11.7v30.97h-1.8V15.39h1.65Z" />
        <path class="cls-3"
            d="M115.19,58.96l-.3-5.32c-2.03,3.67-5.85,6.22-11.47,6.22-10.35,0-12.45-5.85-12.45-15.52V15.39h1.8v28.95c0,9.52,2.25,13.87,10.95,13.87,6.67,0,11.32-4.05,11.32-11.25V15.39h1.8v43.57h-1.65Z" />
        <path class="cls-3"
            d="M153.88,30.61v28.35h-1.8v-28.2c0-10.27-2.32-14.62-10.95-14.62-6.75,0-11.62,4.05-11.62,11.25v31.57h-1.8V15.39h1.65l.3,5.4c2.03-3.67,5.92-6.3,11.77-6.3,6.82,0,10.72,2.92,11.85,9,1.43-5.7,6.37-9,12.52-9,10.35,0,12.67,5.85,12.67,15.52v28.95h-1.8v-28.95c0-9.52-2.4-13.87-11.1-13.87-6.6,0-11.7,4.35-11.7,14.47Z" />
        <path class="cls-3"
            d="M215.3,43.66c0,12.37-5.55,16.2-12.9,16.2-5.92,0-9.9-2.55-11.47-6.37l-.07,19.95h-1.8l.08-58.05h1.65l.3,5.32c1.95-3.67,5.77-6.22,11.47-6.22,8.92,0,12.75,5.85,12.75,16.35v12.82ZM213.5,30.69c0-9.52-3.3-14.55-11.1-14.55-6.68,0-11.47,4.05-11.47,11.25v18.15c0,9.45,5.03,12.67,11.47,12.67,6.9,0,11.1-3.75,11.1-14.77v-12.75Z" />
        <path class="cls-3"
            d="M233.59,59.04c-8.25.82-9.3-2.32-9.3-11.17V1.07h1.8v47.1c0,8.55.9,9.45,7.57,9.45l-.08,1.43Z" />
        <path class="cls-3"
            d="M241.09,1.07h1.95v3.52h-1.95V1.07ZM242.97,58.96h-1.8V15.39h1.8v43.57Z" />
        <path class="cls-3"
            d="M282.34,16.06h-1.73v-.38c0-8.55-3.45-13.05-12.15-13.05-12.52,0-13.5,7.8-13.5,18v19.2c0,10.72.67,18.3,13.5,18.3,9.6,0,11.85-4.2,12.37-13.27v-.38h1.72v.38c-.38,9.75-3.3,15-14.17,15-13.12,0-15.3-7.12-15.3-19.95v-18.75c0-13.12,2.48-20.25,15.37-20.25,9.97,0,13.87,4.95,13.87,14.77v.38Z" />
        <path class="cls-3"
            d="M290.81,1.07h1.95v3.52h-1.95V1.07ZM292.68,58.96h-1.8V15.39h1.8v43.57Z" />
        <path class="cls-3"
            d="M316.34,59.84c-.98.03-2.51.02-4.16.02-7.2,0-9.45-3.6-9.45-11.47V5.42h1.8v10.42h11.77v1.72h-11.77v30.75c0,8.02,2.32,9.82,7.8,9.82,1.57,0,2.73,0,4.04,0l-.03,1.7Z" />
        <path class="cls-3"
            d="M335.05,60.16l-14.55-44.77h1.95l13.65,42.15,11.92-42.15h1.95l-13.65,46.95c-2.7,9.37-5.55,11.85-10.42,11.85-1.27,0-2.47-.23-3.45-.68v-1.72c1.2.53,2.32.68,3.38.68,4.57,0,6.52-2.47,8.7-10.27l.53-2.02Z" />
        <path class="cls-2" d="M363.56,38.59h17.53v20.63s-10.33-1.45-17.53-9.66" />
        <path class="cls-1" d="M407.52,29.99h-16.92v28.24s12.1-2.72,16.92-8.02" />
        <path class="cls-4"
            d="M375.95,36.1V15.4h18.95v12.18h-6.79s0,30.64,0,30.64c0,0-.67.21-4.5.2v-22.3l-7.67-.04Z" />
        <rect class="cls-3" x="313.35" y="58.14" width="52.74" height="1.71" />
        <path class="cls-3"
            d="M385.87,59.62c-8.02,0-15.54-3.14-21.18-8.83l1.23-1.22c5.31,5.37,12.4,8.32,19.95,8.32,15.48,0,28.08-12.6,28.08-28.08s-12.6-28.08-28.08-28.08-28.08,12.6-28.08,28.08v.41s-1.73.02-1.73.02v-.43c0-16.44,13.37-29.81,29.81-29.81s29.81,13.37,29.81,29.81-13.37,29.81-29.81,29.81Z" />
        <polygon class="cls-3"
            points="356.93 31.83 353.5 28.06 354.78 26.9 356.93 29.27 359.08 26.9 360.36 28.07 356.93 31.83" />
        <polygon
            points="366.12 59.85 364.39 59.85 364.39 36.04 383.66 36.04 383.66 58.51 381.93 58.51 381.93 37.77 366.12 37.77 366.12 59.85" />
        <polygon class="cls-3"
            points="389.76 58.98 388.03 58.97 388.04 27.42 406.69 27.43 406.7 51 404.98 51.01 404.96 29.15 389.77 29.15 389.76 58.98" />
        <polygon class="cls-3"
            points="373.4 37.08 373.39 12.84 394.07 12.84 394.07 28.39 392.35 28.39 392.35 14.57 375.12 14.57 375.12 37.08 373.4 37.08" />
        <rect class="cls-3" x="397.2" y="33.08" width="2.72" height="2.58"
            transform="translate(797.13 68.75) rotate(-180)" />
        <rect class="cls-3" x="393.63" y="36.48" width="2.72" height="2.58"
            transform="translate(789.97 75.54) rotate(-180)" />
        <rect class="cls-3" x="379.15" y="19.83" width="3.35" height="3.18"
            transform="translate(761.66 42.84) rotate(-180)" />
        <rect class="cls-3" x="374.47" y="41.29" width="3.07" height="2.91"
            transform="translate(752.01 85.49) rotate(-180)" />
        <rect class="cls-3" x="369.89" y="41.29" width="3.07" height="2.91"
            transform="translate(742.85 85.49) rotate(-180)" />
        <rect class="cls-3" x="393.63" y="33.09" width="2.72" height="2.58"
            transform="translate(789.97 68.75) rotate(-180)" />
        <rect class="cls-3" x="397.2" y="36.48" width="2.72" height="2.58"
            transform="translate(797.13 75.54) rotate(-180)" />
        <rect class="cls-3" x="379.17" y="25.8" width="3.35" height="3.18"
            transform="translate(761.7 54.78) rotate(-180)" />
    </g>
</svg>
