<?xml version="1.0" encoding="UTF-8"?><svg id="Ebene_2" xmlns="http://www.w3.org/2000/svg" viewBox="0 0 240.24 59.74"><defs><style>.cls-1{fill:#cf6325;}.cls-2{fill:#dfad4a;}.cls-3{fill:#fdfdfd;}.cls-4{fill:#93caa0;}.cls-5{fill:#030304;}.cls-6{fill:#010101;}</style></defs><g id="Ebene_6"><rect class="cls-3" width="240.24" height="59.74" rx="12.02" ry="12.02"/><g id="main_größer"><path class="cls-5" d="M12.11,18.3c0-4.82,2.59-7.32,7.36-7.32,3.37,0,7.13,1.49,7.4,6.38h-.9c-.27-3.95-3.29-5.48-6.5-5.48-3.99,0-6.42,1.84-6.42,6.38,0,3.88,1.8,5.6,6.3,7.01,5.8,1.8,7.48,4.5,7.48,8.54,0,6.23-3.21,7.95-7.87,7.95-4.39,0-7.36-2.38-7.4-6.73h.9c.11,3.88,2.66,5.83,6.54,5.83,4.58,0,6.82-1.6,6.82-7.05,0-4.07-1.84-6.03-6.77-7.64-4.98-1.6-6.94-3.56-6.94-7.87Z"/><path class="cls-5" d="M42.98,34.99h.9v.2c0,4.27-1.84,6.58-6.62,6.58s-6.7-2.07-6.7-8.5v-6.82c0-6.42,2.31-8.38,6.89-8.38s6.3,2.27,6.3,6.35v.16h-.9v-.16c0-3.25-1.1-5.48-5.44-5.48s-5.91,2.12-5.91,7.52v6.7c0,5.25,1.18,7.76,5.8,7.76s5.68-2.43,5.68-5.72v-.2h0Z"/><path class="cls-5" d="M49.24,18.54l.16,3.06c.86-1.76,2.86-3.53,5.76-3.53.39,0,.9.04,1.18.08v.94c-.31-.04-.66-.08-1.18-.08-3.41,0-5.83,2.27-5.83,6.11v16.18h-.94v-22.76h.86Z"/><path class="cls-5" d="M71.73,41.29l-.16-2.78c-1.06,1.92-3.06,3.25-5.99,3.25-5.41,0-6.5-3.06-6.5-8.11v-15.12h.94v15.12c0,4.97,1.18,7.24,5.72,7.24,3.48,0,5.91-2.12,5.91-5.88v-16.49h.94v22.76h-.86Z"/><path class="cls-5" d="M91.94,26.49v14.81h-.94v-14.73c0-5.36-1.21-7.64-5.72-7.64-3.53,0-6.07,2.12-6.07,5.88v16.49h-.94v-22.76h.86l.16,2.82c1.06-1.92,3.09-3.29,6.15-3.29,3.56,0,5.6,1.53,6.19,4.7.75-2.98,3.33-4.7,6.54-4.7,5.41,0,6.62,3.06,6.62,8.11v15.12h-.94v-15.12c0-4.97-1.25-7.24-5.8-7.24-3.45,0-6.11,2.27-6.11,7.56h0Z"/><path class="cls-5" d="M124.02,33.3c0,6.46-2.9,8.46-6.74,8.46-3.09,0-5.17-1.33-5.99-3.33l-.04,10.42h-.94l.04-30.32h.86l.16,2.78c1.02-1.92,3.01-3.25,5.99-3.25,4.66,0,6.66,3.06,6.66,8.54v6.7h0ZM123.08,26.53c0-4.97-1.72-7.6-5.8-7.6-3.49,0-5.99,2.12-5.99,5.88v9.48c0,4.94,2.63,6.62,5.99,6.62,3.6,0,5.8-1.96,5.8-7.71v-6.66Z"/><path class="cls-5" d="M133.57,41.33c-4.31.43-4.86-1.21-4.86-5.83V11.06h.94v24.6c0,4.47.47,4.94,3.95,4.94l-.04.75h0Z"/><path class="cls-5" d="M137.49,11.06h1.02v1.84h-1.02v-1.84ZM138.47,41.29h-.94v-22.76h.94v22.76Z"/><path class="cls-5" d="M159.03,18.89h-.9v-.2c0-4.47-1.8-6.82-6.35-6.82-6.54,0-7.05,4.07-7.05,9.4v10.03c0,5.6.35,9.56,7.05,9.56,5.01,0,6.19-2.19,6.46-6.93v-.2h.9v.2c-.2,5.09-1.72,7.83-7.4,7.83-6.85,0-7.99-3.72-7.99-10.42v-9.79c0-6.85,1.3-10.58,8.03-10.58,5.21,0,7.24,2.59,7.24,7.71v.2h.01Z"/><path class="cls-5" d="M163.45,11.06h1.02v1.84h-1.02v-1.84ZM164.43,41.29h-.94v-22.76h.94v22.76Z"/><path class="cls-5" d="M176.79,41.75c-.51.02-1.31.01-2.17.01-3.76,0-4.94-1.88-4.94-5.99V13.33h.94v5.44h6.15v.9h-6.15v16.06c0,4.19,1.21,5.13,4.07,5.13h2.11l-.02.89h0Z"/><path class="cls-5" d="M186.56,41.92l-7.6-23.38h1.02l7.13,22.01,6.23-22.01h1.02l-7.13,24.52c-1.41,4.89-2.9,6.19-5.44,6.19-.66,0-1.29-.12-1.8-.36v-.9c.63.28,1.21.36,1.77.36,2.39,0,3.41-1.29,4.54-5.36l.28-1.06h0Z"/><path class="cls-4" d="M201.45,30.65h9.16v10.77s-5.4-.76-9.16-5.05"/><path class="cls-2" d="M224.41,26.16h-8.84v14.75s6.32-1.42,8.84-4.19"/><path class="cls-1" d="M207.92,29.35v-10.81h9.9v6.36h-3.55v16s-.35.11-2.35.1v-11.65l-4.01-.02h0Z"/><rect class="cls-5" x="175.23" y="40.86" width="27.55" height=".89"/><path class="cls-5" d="M213.1,41.64c-4.19,0-8.12-1.64-11.06-4.61l.64-.64c2.77,2.8,6.48,4.35,10.42,4.35,8.09,0,14.67-6.58,14.67-14.67s-6.58-14.67-14.67-14.67-14.67,6.58-14.67,14.67v.21h-.9s0-.21,0-.21c0-8.59,6.98-15.57,15.57-15.57s15.57,6.98,15.57,15.57-6.98,15.57-15.57,15.57h0Z"/><polygon class="cls-5" points="197.99 27.12 196.2 25.15 196.87 24.55 197.99 25.79 199.11 24.55 199.78 25.16 197.99 27.12"/><polygon class="cls-6" points="202.79 41.76 201.88 41.76 201.88 29.32 211.95 29.32 211.95 41.06 211.05 41.06 211.05 30.22 202.79 30.22 202.79 41.76"/><polygon class="cls-5" points="215.14 41.3 214.23 41.3 214.24 24.82 223.98 24.82 223.98 37.13 223.08 37.14 223.07 25.72 215.14 25.72 215.14 41.3"/><polygon class="cls-5" points="206.59 29.86 206.59 17.2 217.39 17.2 217.39 25.33 216.49 25.33 216.49 18.11 207.49 18.11 207.49 29.86 206.59 29.86"/><rect class="cls-5" x="219.03" y="27.78" width="1.42" height="1.35"/><rect class="cls-5" x="217.15" y="29.55" width="1.42" height="1.35"/><rect class="cls-5" x="209.6" y="20.85" width="1.75" height="1.66"/><rect class="cls-5" x="207.15" y="32.06" width="1.6" height="1.52"/><rect class="cls-5" x="204.76" y="32.06" width="1.6" height="1.52"/><rect class="cls-5" x="217.15" y="27.78" width="1.42" height="1.35"/><rect class="cls-5" x="219.03" y="29.55" width="1.42" height="1.35"/><rect class="cls-5" x="209.61" y="23.97" width="1.75" height="1.66"/></g></g></svg>