<svg xmlns="http://www.w3.org/2000/svg" version="1.1" xmlns:xlink="http://www.w3.org/1999/xlink" xmlns:svgjs="http://svgjs.dev/svgjs" width="154.57" height="134.56"><svg id="SvgjsSvg1104" xmlns="http://www.w3.org/2000/svg" viewBox="0 0 154.57 134.56">
  <defs>
    <style>
      .cls-1, .cls-2 {
        fill: none;
        stroke: #327597;
        stroke-miterlimit: 10;
        stroke-width: 7px;
      }

      .cls-2 {
        stroke-linecap: round;
      }
    </style>
  </defs>
  <g id="SvgjsG1103">
    <g>
      <circle class="cls-1" cx="83.68" cy="86.55" r="8.8"></circle>
      <path class="cls-2" d="M104.31,27.1l-14.12-20.2c-3.16-4.52-9.86-4.52-13.02,0L4.95,110.25c-3.68,5.27.09,12.49,6.51,12.49h22.1c3.51,0,5.7-.12,10.2-2.06l5.29-2.23c.85-.36,1.68-.76,2.49-1.2,2.7-1.44,9.44-6.55,16.31-.11l9.49,10.16s6.52,8.48,11.87,0l14.09-25.45"></path>
      <path class="cls-2" d="M103.31,101.84c2.78-6.49,6.02-12.3,4.36-21.67-2.64-14.97-20.15-25.04-35.1-15.91,0,0-4.62,1.83-12.44,10.83-.94,1.08-2.17-1.04-2.54-2.41-.62-2.28,4.9-29.43,30.71-32.02,0,0,36.68-7.9,62.77,37.1"></path>
    </g>
  </g>
</svg><style>@media (prefers-color-scheme: light) { :root { filter: none; } }
@media (prefers-color-scheme: dark) { :root { filter: none; } }
</style></svg>